<svg class="device-svg" viewBox="0 0 1000 800" xmlns="http://www.w3.org/2000/svg" role="img" aria-labelledby="device-svg-title device-svg-desc">
<title id="device-svg-title">World Sensing Music Station — reconstructed prototype</title>
<desc id="device-svg-desc">A raised cardboard base, three visible breadboards, internal red and black jumper wires, two control boards, seven buttons, an ultrasonic sensor and a central LED matrix, surrounded by a translucent coiled NeoPixel strip. Power leads are tucked underneath.</desc>
<defs>
 <linearGradient id="cardboard" x2="0.4" y2="1"><stop stop-color="#625243"/><stop offset="1" stop-color="#30291f"/></linearGradient>
 <linearGradient id="board-plastic" x2="0" y2="1"><stop stop-color="#dfded1"/><stop offset="1" stop-color="#9e9f94"/></linearGradient>
 <linearGradient id="strip" x1="0" y1="0" x2="1" y2="1"><stop stop-color="#d9e4df" stop-opacity=".55"/><stop offset=".3" stop-color="#a6c2c0" stop-opacity=".15"/><stop offset=".7" stop-color="#f4f5e8" stop-opacity=".4"/><stop offset="1" stop-color="#a2b4ad" stop-opacity=".25"/></linearGradient>
 <linearGradient id="sensor-metal" x2="0" y2="1"><stop stop-color="#d8dbd5"/><stop offset=".35" stop-color="#888f88"/><stop offset=".65" stop-color="#3d4542"/><stop offset="1" stop-color="#c1c5bc"/></linearGradient>
 <radialGradient id="sensor-face"><stop stop-color="#303735"/><stop offset=".65" stop-color="#232a28"/><stop offset=".85" stop-color="#747e76"/><stop offset="1" stop-color="#ccd1c7"/></radialGradient>
 <pattern id="holes" width="9" height="10" patternUnits="userSpaceOnUse"><rect x="3" y="3" width="2.8" height="3.6" rx=".8" fill="#494e46" opacity=".8"/></pattern>
 <pattern id="corrugation" width="8" height="8" patternUnits="userSpaceOnUse"><path d="M0 0V8M3 0V8" stroke="#91806a" stroke-width="1" opacity=".45"/></pattern>
 <filter id="led-glow" x="-150%" y="-150%" width="400%" height="400%"><feGaussianBlur stdDeviation="5"/></filter>
 <filter id="device-shadow" x="-40%" y="-40%" width="180%" height="180%"><feGaussianBlur stdDeviation="20"/></filter>
</defs>
<ellipse cx="512" cy="665" rx="305" ry="62" fill="#000" opacity=".85" filter="url(#device-shadow)"/>
<g id="device-body">
 <path d="M164 319L701 185L864 559L326 709Z" fill="#11150e"/>
 <path d="M164 277L326 666L326 709L164 319Z" fill="#483726" stroke="#746044"/>
 <path d="M326 666L864 516L864 559L326 709Z" fill="url(#corrugation)" stroke="#796246"/>
 <path d="M326 669L864 519" fill="none" stroke="#b5a283" stroke-width="3"/>
 <path d="M326 701L864 551" fill="none" stroke="#241e16" stroke-width="4"/>
 <g transform="matrix(1 -.25 .32 .68 175 287)">
  <path d="M-14 -10L526 -16L531 531L-10 535Z" fill="url(#cardboard)" stroke="#8a755f" stroke-width="2"/>
  <path d="M-14 -10L-14 -35L526 -40L526 -16Z" fill="#453b30" stroke="#6c5a48"/>
  <path d="M-14 -10L-34 -4L-29 512L-10 535Z" fill="#252924"/>
  <g><rect x="18" y="20" width="156" height="483" rx="3" fill="#656c61"/><rect x="18" y="15" width="156" height="483" rx="3" fill="url(#board-plastic)"/><rect x="26" y="25" width="140" height="459" fill="url(#holes)"/><path d="M27 37V478M165 37V478" stroke="#b36c62" stroke-width="1.5"/><path d="M36 37V478M156 37V478" stroke="#647887" stroke-width="1.5"/><path d="M90 35V480" stroke="#757d71" stroke-width="5"/></g><g><rect x="183" y="20" width="156" height="483" rx="3" fill="#656c61"/><rect x="183" y="15" width="156" height="483" rx="3" fill="url(#board-plastic)"/><rect x="191" y="25" width="140" height="459" fill="url(#holes)"/><path d="M192 37V478M330 37V478" stroke="#b36c62" stroke-width="1.5"/><path d="M201 37V478M321 37V478" stroke="#647887" stroke-width="1.5"/><path d="M255 35V480" stroke="#757d71" stroke-width="5"/></g><g><rect x="348" y="20" width="156" height="483" rx="3" fill="#656c61"/><rect x="348" y="15" width="156" height="483" rx="3" fill="url(#board-plastic)"/><rect x="356" y="25" width="140" height="459" fill="url(#holes)"/><path d="M357 37V478M495 37V478" stroke="#b36c62" stroke-width="1.5"/><path d="M366 37V478M486 37V478" stroke="#647887" stroke-width="1.5"/><path d="M420 35V480" stroke="#757d71" stroke-width="5"/></g>
  <g fill="none" stroke-width="3" stroke-linecap="round" opacity=".95"><path d="M58 60 C15 -40 15 190 420 120" stroke="#232326"/><path d="M74 78 C90 -22 90 165 390 95" stroke="#bd3938"/><path d="M88 92 C130 -8 130 400 395 330" stroke="#bd3938"/><path d="M96 105 C220 5 220 465 180 395" stroke="#bd3938"/><path d="M105 65 C18 -35 18 305 285 235" stroke="#bd3938"/><path d="M70 108 C105 8 105 270 230 200" stroke="#232326"/><path d="M118 75 C120 -25 120 235 430 165" stroke="#bd3938"/><path d="M78 130 C150 30 150 230 382 160" stroke="#c18b35"/><path d="M114 140 C20 40 20 440 360 370" stroke="#bd3938"/><path d="M135 48 C10 -52 10 145 340 75" stroke="#bd3938"/><path d="M428 105 C230 5 230 488 415 418" stroke="#232326"/><path d="M411 135 C180 35 180 380 285 310" stroke="#bd3938"/><path d="M389 112 C230 12 230 360 340 290" stroke="#bd3938"/><path d="M385 140 C290 40 290 405 98 335" stroke="#bd3938"/><path d="M408 85 C430 -15 430 455 330 385" stroke="#c18b35"/><path d="M90 220 C445 120 445 475 210 405" stroke="#232326"/><path d="M88 245 C370 145 370 495 265 425" stroke="#bd3938"/><path d="M82 275 C340 175 340 320 280 250" stroke="#bd3938"/><path d="M420 290 C480 190 480 505 347 435" stroke="#bd3938"/><path d="M438 307 C430 207 430 430 170 360" stroke="#bd3938"/><path d="M130 350 C295 250 295 500 340 430" stroke="#232326"/><path d="M147 355 C250 255 250 145 330 75" stroke="#c18b35"/><path d="M166 389 C480 289 480 300 450 230" stroke="#bd3938"/><path d="M285 338 C160 238 160 345 120 275" stroke="#bd3938"/><path d="M320 298 C180 198 180 252 398 182" stroke="#bd3938"/><path d="M321 265 C190 165 190 188 150 118" stroke="#232326"/><path d="M290 297 C70 197 70 188 260 118" stroke="#bd3938"/><path d="M278 330 C370 230 370 470 75 400" stroke="#bd3938"/></g>
  <g transform="translate(47 31)">
   <rect y="15" width="108" height="57" fill="#1d344b" stroke="#69817e"/>
   <rect x="16" y="64" width="4" height="7" fill="#c9c6ad"/><rect x="24" y="64" width="4" height="7" fill="#c9c6ad"/><rect x="32" y="64" width="4" height="7" fill="#c9c6ad"/><rect x="40" y="64" width="4" height="7" fill="#c9c6ad"/><rect x="48" y="64" width="4" height="7" fill="#c9c6ad"/><rect x="56" y="64" width="4" height="7" fill="#c9c6ad"/><rect x="64" y="64" width="4" height="7" fill="#c9c6ad"/><rect x="72" y="64" width="4" height="7" fill="#c9c6ad"/><rect x="80" y="64" width="4" height="7" fill="#c9c6ad"/>
   <rect x="4" y="19" width="100" height="4" fill="#a0ada2"/>
   <rect x="18" y="55" width="13" height="9" fill="#171c20"/><rect x="68" y="55" width="14" height="9" fill="#171c20"/>
   <path d="M7 24V-7H49V24Z" fill="url(#sensor-metal)" stroke="#969f98"/><ellipse cx="28" cy="-7" rx="21" ry="20" fill="url(#sensor-face)"/><ellipse cx="28" cy="-7" rx="15" ry="14" fill="url(#holes)" stroke="#68736b"/><path d="M59 24V-7H101V24Z" fill="url(#sensor-metal)" stroke="#969f98"/><ellipse cx="80" cy="-7" rx="21" ry="20" fill="url(#sensor-face)"/><ellipse cx="80" cy="-7" rx="15" ry="14" fill="url(#holes)" stroke="#68736b"/>
  </g>
  <g transform="translate(376 68) rotate(3)">
   <rect width="60" height="122" rx="2" fill="#223b36" stroke="#6e8880"/>
   <rect x="3" y="4" width="4" height="7" fill="#c9c6ad"/><rect x="3" y="12" width="4" height="7" fill="#c9c6ad"/><rect x="3" y="20" width="4" height="7" fill="#c9c6ad"/><rect x="3" y="28" width="4" height="7" fill="#c9c6ad"/><rect x="3" y="36" width="4" height="7" fill="#c9c6ad"/><rect x="3" y="44" width="4" height="7" fill="#c9c6ad"/><rect x="3" y="52" width="4" height="7" fill="#c9c6ad"/><rect x="3" y="60" width="4" height="7" fill="#c9c6ad"/><rect x="3" y="68" width="4" height="7" fill="#c9c6ad"/><rect x="3" y="76" width="4" height="7" fill="#c9c6ad"/><rect x="3" y="84" width="4" height="7" fill="#c9c6ad"/><rect x="3" y="92" width="4" height="7" fill="#c9c6ad"/><rect x="3" y="100" width="4" height="7" fill="#c9c6ad"/><rect x="3" y="108" width="4" height="7" fill="#c9c6ad"/><rect x="54" y="4" width="4" height="7" fill="#c9c6ad"/><rect x="54" y="12" width="4" height="7" fill="#c9c6ad"/><rect x="54" y="20" width="4" height="7" fill="#c9c6ad"/><rect x="54" y="28" width="4" height="7" fill="#c9c6ad"/><rect x="54" y="36" width="4" height="7" fill="#c9c6ad"/><rect x="54" y="44" width="4" height="7" fill="#c9c6ad"/><rect x="54" y="52" width="4" height="7" fill="#c9c6ad"/><rect x="54" y="60" width="4" height="7" fill="#c9c6ad"/><rect x="54" y="68" width="4" height="7" fill="#c9c6ad"/><rect x="54" y="76" width="4" height="7" fill="#c9c6ad"/><rect x="54" y="84" width="4" height="7" fill="#c9c6ad"/><rect x="54" y="92" width="4" height="7" fill="#c9c6ad"/><rect x="54" y="100" width="4" height="7" fill="#c9c6ad"/><rect x="54" y="108" width="4" height="7" fill="#c9c6ad"/>
   <rect x="19" y="44" width="24" height="36" fill="#202625" stroke="#96998b"/>
   <rect x="16" y="-7" width="28" height="25" rx="2" fill="#8b9990" stroke="#b8bcb0"/>
   <circle cx="16" cy="97" r="3" fill="#ab5144"/>
  </g>
  <g transform="translate(84 425) rotate(-3)">
   <rect width="69" height="57" fill="#223c39" stroke="#87998b"/>
   <rect x="4" y="1" width="4" height="7" fill="#c9c6ad"/><rect x="12" y="1" width="4" height="7" fill="#c9c6ad"/><rect x="20" y="1" width="4" height="7" fill="#c9c6ad"/><rect x="28" y="1" width="4" height="7" fill="#c9c6ad"/><rect x="36" y="1" width="4" height="7" fill="#c9c6ad"/><rect x="44" y="1" width="4" height="7" fill="#c9c6ad"/><rect x="52" y="1" width="4" height="7" fill="#c9c6ad"/><rect x="60" y="1" width="4" height="7" fill="#c9c6ad"/><rect x="4" y="49" width="4" height="7" fill="#c9c6ad"/><rect x="12" y="49" width="4" height="7" fill="#c9c6ad"/><rect x="20" y="49" width="4" height="7" fill="#c9c6ad"/><rect x="28" y="49" width="4" height="7" fill="#c9c6ad"/><rect x="36" y="49" width="4" height="7" fill="#c9c6ad"/><rect x="44" y="49" width="4" height="7" fill="#c9c6ad"/><rect x="52" y="49" width="4" height="7" fill="#c9c6ad"/><rect x="60" y="49" width="4" height="7" fill="#c9c6ad"/>
   <rect x="22" y="14" width="23" height="24" fill="#1c2320" stroke="#8a8d7f"/>
   <rect x="20" y="42" width="28" height="27" fill="#a9b0a4" stroke="#626e64"/>
   <circle cx="8" cy="29" r="3" fill="#92c765"/>
  </g>
  <g transform="translate(413 392)"><rect width="45" height="56" fill="#213c36" stroke="#6d8b74"/><circle cx="22" cy="23" r="11" fill="#1c2421" stroke="#9a9d89"/><circle cx="22" cy="23" r="5" fill="#060a08"/><rect x="5" y="46" width="4" height="7" fill="#c9c6ad"/><rect x="13" y="46" width="4" height="7" fill="#c9c6ad"/><rect x="21" y="46" width="4" height="7" fill="#c9c6ad"/><rect x="29" y="46" width="4" height="7" fill="#c9c6ad"/></g>
  <g transform="translate(128 352)"><rect x="-10" y="-10" width="20" height="20" fill="#a9a997" stroke="#727567"/><rect x="-8" y="-8" width="16" height="16" fill="#333632"/><circle r="5" fill="#1b1e1b" stroke="#626559"/><rect x="-11" y="-8" width="4" height="7" fill="#c9c6ad"/><rect x="-11" y="0" width="4" height="7" fill="#c9c6ad"/></g><g transform="translate(106 378)"><rect x="-10" y="-10" width="20" height="20" fill="#a9a997" stroke="#727567"/><rect x="-8" y="-8" width="16" height="16" fill="#333632"/><circle r="5" fill="#1b1e1b" stroke="#626559"/><rect x="-11" y="-8" width="4" height="7" fill="#c9c6ad"/><rect x="-11" y="0" width="4" height="7" fill="#c9c6ad"/></g><g transform="translate(150 378)"><rect x="-10" y="-10" width="20" height="20" fill="#a9a997" stroke="#727567"/><rect x="-8" y="-8" width="16" height="16" fill="#333632"/><circle r="5" fill="#1b1e1b" stroke="#626559"/><rect x="-11" y="-8" width="4" height="7" fill="#c9c6ad"/><rect x="-11" y="0" width="4" height="7" fill="#c9c6ad"/></g><g transform="translate(128 404)"><rect x="-10" y="-10" width="20" height="20" fill="#a9a997" stroke="#727567"/><rect x="-8" y="-8" width="16" height="16" fill="#333632"/><circle r="5" fill="#1b1e1b" stroke="#626559"/><rect x="-11" y="-8" width="4" height="7" fill="#c9c6ad"/><rect x="-11" y="0" width="4" height="7" fill="#c9c6ad"/></g><g transform="translate(373 205)"><rect x="-10" y="-10" width="20" height="20" fill="#a9a997" stroke="#727567"/><rect x="-8" y="-8" width="16" height="16" fill="#333632"/><circle r="5" fill="#1b1e1b" stroke="#626559"/><rect x="-11" y="-8" width="4" height="7" fill="#c9c6ad"/><rect x="-11" y="0" width="4" height="7" fill="#c9c6ad"/></g><g transform="translate(404 205)"><rect x="-10" y="-10" width="20" height="20" fill="#a9a997" stroke="#727567"/><rect x="-8" y="-8" width="16" height="16" fill="#333632"/><circle r="5" fill="#1b1e1b" stroke="#626559"/><rect x="-11" y="-8" width="4" height="7" fill="#c9c6ad"/><rect x="-11" y="0" width="4" height="7" fill="#c9c6ad"/></g><g transform="translate(435 205)"><rect x="-10" y="-10" width="20" height="20" fill="#a9a997" stroke="#727567"/><rect x="-8" y="-8" width="16" height="16" fill="#333632"/><circle r="5" fill="#1b1e1b" stroke="#626559"/><rect x="-11" y="-8" width="4" height="7" fill="#c9c6ad"/><rect x="-11" y="0" width="4" height="7" fill="#c9c6ad"/></g>
  <path d="M205 222L312 222L317 324L205 324Z" fill="#4d5549" stroke="#b9bca7" stroke-width="5"/>
  <path d="M213 229L306 229L306 319L213 319Z" fill="#1d2723"/>
  <circle class="matrix-pixel" data-pixel="0" cx="226" cy="242" r="3.8" fill="#535846"/><circle class="matrix-pixel" data-pixel="1" cx="236" cy="242" r="3.8" fill="#535846"/><circle class="matrix-pixel" data-pixel="2" cx="246" cy="242" r="3.8" fill="#f4f4ee"/><circle class="matrix-pixel" data-pixel="3" cx="256" cy="242" r="3.8" fill="#f4f4ee"/><circle class="matrix-pixel" data-pixel="4" cx="266" cy="242" r="3.8" fill="#f4f4ee"/><circle class="matrix-pixel" data-pixel="5" cx="276" cy="242" r="3.8" fill="#f4f4ee"/><circle class="matrix-pixel" data-pixel="6" cx="286" cy="242" r="3.8" fill="#535846"/><circle class="matrix-pixel" data-pixel="7" cx="296" cy="242" r="3.8" fill="#535846"/><circle class="matrix-pixel" data-pixel="8" cx="226" cy="252" r="3.8" fill="#535846"/><circle class="matrix-pixel" data-pixel="9" cx="236" cy="252" r="3.8" fill="#f4f4ee"/><circle class="matrix-pixel" data-pixel="10" cx="246" cy="252" r="3.8" fill="#535846"/><circle class="matrix-pixel" data-pixel="11" cx="256" cy="252" r="3.8" fill="#535846"/><circle class="matrix-pixel" data-pixel="12" cx="266" cy="252" r="3.8" fill="#535846"/><circle class="matrix-pixel" data-pixel="13" cx="276" cy="252" r="3.8" fill="#535846"/><circle class="matrix-pixel" data-pixel="14" cx="286" cy="252" r="3.8" fill="#f4f4ee"/><circle class="matrix-pixel" data-pixel="15" cx="296" cy="252" r="3.8" fill="#535846"/><circle class="matrix-pixel" data-pixel="16" cx="226" cy="262" r="3.8" fill="#f4f4ee"/><circle class="matrix-pixel" data-pixel="17" cx="236" cy="262" r="3.8" fill="#535846"/><circle class="matrix-pixel" data-pixel="18" cx="246" cy="262" r="3.8" fill="#535846"/><circle class="matrix-pixel" data-pixel="19" cx="256" cy="262" r="3.8" fill="#535846"/><circle class="matrix-pixel" data-pixel="20" cx="266" cy="262" r="3.8" fill="#535846"/><circle class="matrix-pixel" data-pixel="21" cx="276" cy="262" r="3.8" fill="#535846"/><circle class="matrix-pixel" data-pixel="22" cx="286" cy="262" r="3.8" fill="#535846"/><circle class="matrix-pixel" data-pixel="23" cx="296" cy="262" r="3.8" fill="#f4f4ee"/><circle class="matrix-pixel" data-pixel="24" cx="226" cy="272" r="3.8" fill="#f4f4ee"/><circle class="matrix-pixel" data-pixel="25" cx="236" cy="272" r="3.8" fill="#535846"/><circle class="matrix-pixel" data-pixel="26" cx="246" cy="272" r="3.8" fill="#535846"/><circle class="matrix-pixel" data-pixel="27" cx="256" cy="272" r="3.8" fill="#535846"/><circle class="matrix-pixel" data-pixel="28" cx="266" cy="272" r="3.8" fill="#535846"/><circle class="matrix-pixel" data-pixel="29" cx="276" cy="272" r="3.8" fill="#535846"/><circle class="matrix-pixel" data-pixel="30" cx="286" cy="272" r="3.8" fill="#535846"/><circle class="matrix-pixel" data-pixel="31" cx="296" cy="272" r="3.8" fill="#f4f4ee"/><circle class="matrix-pixel" data-pixel="32" cx="226" cy="282" r="3.8" fill="#f4f4ee"/><circle class="matrix-pixel" data-pixel="33" cx="236" cy="282" r="3.8" fill="#535846"/><circle class="matrix-pixel" data-pixel="34" cx="246" cy="282" r="3.8" fill="#535846"/><circle class="matrix-pixel" data-pixel="35" cx="256" cy="282" r="3.8" fill="#535846"/><circle class="matrix-pixel" data-pixel="36" cx="266" cy="282" r="3.8" fill="#535846"/><circle class="matrix-pixel" data-pixel="37" cx="276" cy="282" r="3.8" fill="#535846"/><circle class="matrix-pixel" data-pixel="38" cx="286" cy="282" r="3.8" fill="#535846"/><circle class="matrix-pixel" data-pixel="39" cx="296" cy="282" r="3.8" fill="#f4f4ee"/><circle class="matrix-pixel" data-pixel="40" cx="226" cy="292" r="3.8" fill="#f4f4ee"/><circle class="matrix-pixel" data-pixel="41" cx="236" cy="292" r="3.8" fill="#535846"/><circle class="matrix-pixel" data-pixel="42" cx="246" cy="292" r="3.8" fill="#535846"/><circle class="matrix-pixel" data-pixel="43" cx="256" cy="292" r="3.8" fill="#535846"/><circle class="matrix-pixel" data-pixel="44" cx="266" cy="292" r="3.8" fill="#535846"/><circle class="matrix-pixel" data-pixel="45" cx="276" cy="292" r="3.8" fill="#535846"/><circle class="matrix-pixel" data-pixel="46" cx="286" cy="292" r="3.8" fill="#535846"/><circle class="matrix-pixel" data-pixel="47" cx="296" cy="292" r="3.8" fill="#f4f4ee"/><circle class="matrix-pixel" data-pixel="48" cx="226" cy="302" r="3.8" fill="#535846"/><circle class="matrix-pixel" data-pixel="49" cx="236" cy="302" r="3.8" fill="#f4f4ee"/><circle class="matrix-pixel" data-pixel="50" cx="246" cy="302" r="3.8" fill="#535846"/><circle class="matrix-pixel" data-pixel="51" cx="256" cy="302" r="3.8" fill="#535846"/><circle class="matrix-pixel" data-pixel="52" cx="266" cy="302" r="3.8" fill="#535846"/><circle class="matrix-pixel" data-pixel="53" cx="276" cy="302" r="3.8" fill="#535846"/><circle class="matrix-pixel" data-pixel="54" cx="286" cy="302" r="3.8" fill="#f4f4ee"/><circle class="matrix-pixel" data-pixel="55" cx="296" cy="302" r="3.8" fill="#535846"/><circle class="matrix-pixel" data-pixel="56" cx="226" cy="312" r="3.8" fill="#535846"/><circle class="matrix-pixel" data-pixel="57" cx="236" cy="312" r="3.8" fill="#535846"/><circle class="matrix-pixel" data-pixel="58" cx="246" cy="312" r="3.8" fill="#f4f4ee"/><circle class="matrix-pixel" data-pixel="59" cx="256" cy="312" r="3.8" fill="#f4f4ee"/><circle class="matrix-pixel" data-pixel="60" cx="266" cy="312" r="3.8" fill="#f4f4ee"/><circle class="matrix-pixel" data-pixel="61" cx="276" cy="312" r="3.8" fill="#f4f4ee"/><circle class="matrix-pixel" data-pixel="62" cx="286" cy="312" r="3.8" fill="#535846"/><circle class="matrix-pixel" data-pixel="63" cx="296" cy="312" r="3.8" fill="#535846"/>
  <g fill="none" stroke-linecap="round">
   <circle cx="268" cy="254" r="222" stroke="#050908" stroke-width="31" opacity=".25"/>
   <circle cx="268" cy="243" r="222" stroke="url(#strip)" stroke-width="27"/>
   <circle cx="268" cy="210" r="222" stroke="url(#strip)" stroke-width="27"/>
   <path d="M46 210V243M490 210V243" stroke="#ccdfd7" stroke-width="3" opacity=".6"/>
   <circle class="loop-wash" cx="268" cy="238" r="222" stroke="#86e8cf" stroke-width="9" stroke-dasharray="335 1060" stroke-dashoffset="0" opacity=".08" filter="url(#led-glow)"/><circle class="loop-wash" cx="268" cy="238" r="222" stroke="#cf80c3" stroke-width="9" stroke-dasharray="335 1060" stroke-dashoffset="-349" opacity=".08" filter="url(#led-glow)"/><circle class="loop-wash" cx="268" cy="238" r="222" stroke="#85bade" stroke-width="9" stroke-dasharray="335 1060" stroke-dashoffset="-698" opacity=".08" filter="url(#led-glow)"/><circle class="loop-wash" cx="268" cy="238" r="222" stroke="#eddb91" stroke-width="9" stroke-dasharray="335 1060" stroke-dashoffset="-1047" opacity=".08" filter="url(#led-glow)"/>
   <circle cx="268" cy="238" r="222" stroke="#d4e1d6" stroke-width="1.7" opacity=".8"/>
   <circle cx="268" cy="196" r="222" stroke="#e8f3ed" stroke-width="2" opacity=".75"/>
   <path d="M66 326Q49 309 41 287" stroke="#181e19" stroke-width="12"/>
  </g>
  <g class="loop-led" data-led="0" style="--led-color:#86e8cf"><circle class="led-glow" cx="490.00" cy="238.00" r="17" fill="#86e8cf" opacity=".5" filter="url(#led-glow)"/><rect class="led-chip" x="486.00" y="233.00" width="8" height="10" rx="2" fill="#86e8cf"/><circle cx="490.00" cy="238.00" r="3" fill="#fafff8"/></g><g class="loop-led" data-led="1" style="--led-color:#86e8cf"><circle class="led-glow" cx="485.15" cy="284.16" r="17" fill="#86e8cf" opacity=".5" filter="url(#led-glow)"/><rect class="led-chip" x="481.15" y="279.16" width="8" height="10" rx="2" fill="#86e8cf"/><circle cx="485.15" cy="284.16" r="3" fill="#fafff8"/></g><g class="loop-led" data-led="2" style="--led-color:#86e8cf"><circle class="led-glow" cx="470.81" cy="328.30" r="17" fill="#86e8cf" opacity=".5" filter="url(#led-glow)"/><rect class="led-chip" x="466.81" y="323.30" width="8" height="10" rx="2" fill="#86e8cf"/><circle cx="470.81" cy="328.30" r="3" fill="#fafff8"/></g><g class="loop-led" data-led="3" style="--led-color:#86e8cf"><circle class="led-glow" cx="447.60" cy="368.49" r="17" fill="#86e8cf" opacity=".5" filter="url(#led-glow)"/><rect class="led-chip" x="443.60" y="363.49" width="8" height="10" rx="2" fill="#86e8cf"/><circle cx="447.60" cy="368.49" r="3" fill="#fafff8"/></g><g class="loop-led" data-led="4" style="--led-color:#86e8cf"><circle class="led-glow" cx="416.55" cy="402.98" r="17" fill="#86e8cf" opacity=".5" filter="url(#led-glow)"/><rect class="led-chip" x="412.55" y="397.98" width="8" height="10" rx="2" fill="#86e8cf"/><circle cx="416.55" cy="402.98" r="3" fill="#fafff8"/></g><g class="loop-led" data-led="5" style="--led-color:#86e8cf"><circle class="led-glow" cx="379.00" cy="430.26" r="17" fill="#86e8cf" opacity=".5" filter="url(#led-glow)"/><rect class="led-chip" x="375.00" y="425.26" width="8" height="10" rx="2" fill="#86e8cf"/><circle cx="379.00" cy="430.26" r="3" fill="#fafff8"/></g><g class="loop-led" data-led="6" style="--led-color:#86e8cf"><circle class="led-glow" cx="336.60" cy="449.13" r="17" fill="#86e8cf" opacity=".5" filter="url(#led-glow)"/><rect class="led-chip" x="332.60" y="444.13" width="8" height="10" rx="2" fill="#86e8cf"/><circle cx="336.60" cy="449.13" r="3" fill="#fafff8"/></g><g class="loop-led" data-led="7" style="--led-color:#86e8cf"><circle class="led-glow" cx="291.21" cy="458.78" r="17" fill="#86e8cf" opacity=".5" filter="url(#led-glow)"/><rect class="led-chip" x="287.21" y="453.78" width="8" height="10" rx="2" fill="#86e8cf"/><circle cx="291.21" cy="458.78" r="3" fill="#fafff8"/></g><g class="loop-led" data-led="8" style="--led-color:#cf80c3"><circle class="led-glow" cx="244.79" cy="458.78" r="17" fill="#cf80c3" opacity=".5" filter="url(#led-glow)"/><rect class="led-chip" x="240.79" y="453.78" width="8" height="10" rx="2" fill="#cf80c3"/><circle cx="244.79" cy="458.78" r="3" fill="#fafff8"/></g><g class="loop-led" data-led="9" style="--led-color:#cf80c3"><circle class="led-glow" cx="199.40" cy="449.13" r="17" fill="#cf80c3" opacity=".5" filter="url(#led-glow)"/><rect class="led-chip" x="195.40" y="444.13" width="8" height="10" rx="2" fill="#cf80c3"/><circle cx="199.40" cy="449.13" r="3" fill="#fafff8"/></g><g class="loop-led" data-led="10" style="--led-color:#cf80c3"><circle class="led-glow" cx="157.00" cy="430.26" r="17" fill="#cf80c3" opacity=".5" filter="url(#led-glow)"/><rect class="led-chip" x="153.00" y="425.26" width="8" height="10" rx="2" fill="#cf80c3"/><circle cx="157.00" cy="430.26" r="3" fill="#fafff8"/></g><g class="loop-led" data-led="11" style="--led-color:#cf80c3"><circle class="led-glow" cx="119.45" cy="402.98" r="17" fill="#cf80c3" opacity=".5" filter="url(#led-glow)"/><rect class="led-chip" x="115.45" y="397.98" width="8" height="10" rx="2" fill="#cf80c3"/><circle cx="119.45" cy="402.98" r="3" fill="#fafff8"/></g><g class="loop-led" data-led="12" style="--led-color:#cf80c3"><circle class="led-glow" cx="88.40" cy="368.49" r="17" fill="#cf80c3" opacity=".5" filter="url(#led-glow)"/><rect class="led-chip" x="84.40" y="363.49" width="8" height="10" rx="2" fill="#cf80c3"/><circle cx="88.40" cy="368.49" r="3" fill="#fafff8"/></g><g class="loop-led" data-led="13" style="--led-color:#cf80c3"><circle class="led-glow" cx="65.19" cy="328.30" r="17" fill="#cf80c3" opacity=".5" filter="url(#led-glow)"/><rect class="led-chip" x="61.19" y="323.30" width="8" height="10" rx="2" fill="#cf80c3"/><circle cx="65.19" cy="328.30" r="3" fill="#fafff8"/></g><g class="loop-led" data-led="14" style="--led-color:#cf80c3"><circle class="led-glow" cx="50.85" cy="284.16" r="17" fill="#cf80c3" opacity=".5" filter="url(#led-glow)"/><rect class="led-chip" x="46.85" y="279.16" width="8" height="10" rx="2" fill="#cf80c3"/><circle cx="50.85" cy="284.16" r="3" fill="#fafff8"/></g><g class="loop-led" data-led="15" style="--led-color:#cf80c3"><circle class="led-glow" cx="46.00" cy="238.00" r="17" fill="#cf80c3" opacity=".5" filter="url(#led-glow)"/><rect class="led-chip" x="42.00" y="233.00" width="8" height="10" rx="2" fill="#cf80c3"/><circle cx="46.00" cy="238.00" r="3" fill="#fafff8"/></g><g class="loop-led" data-led="16" style="--led-color:#85bade"><circle class="led-glow" cx="50.85" cy="191.84" r="17" fill="#85bade" opacity=".5" filter="url(#led-glow)"/><rect class="led-chip" x="46.85" y="186.84" width="8" height="10" rx="2" fill="#85bade"/><circle cx="50.85" cy="191.84" r="3" fill="#fafff8"/></g><g class="loop-led" data-led="17" style="--led-color:#85bade"><circle class="led-glow" cx="65.19" cy="147.70" r="17" fill="#85bade" opacity=".5" filter="url(#led-glow)"/><rect class="led-chip" x="61.19" y="142.70" width="8" height="10" rx="2" fill="#85bade"/><circle cx="65.19" cy="147.70" r="3" fill="#fafff8"/></g><g class="loop-led" data-led="18" style="--led-color:#85bade"><circle class="led-glow" cx="88.40" cy="107.51" r="17" fill="#85bade" opacity=".5" filter="url(#led-glow)"/><rect class="led-chip" x="84.40" y="102.51" width="8" height="10" rx="2" fill="#85bade"/><circle cx="88.40" cy="107.51" r="3" fill="#fafff8"/></g><g class="loop-led" data-led="19" style="--led-color:#85bade"><circle class="led-glow" cx="119.45" cy="73.02" r="17" fill="#85bade" opacity=".5" filter="url(#led-glow)"/><rect class="led-chip" x="115.45" y="68.02" width="8" height="10" rx="2" fill="#85bade"/><circle cx="119.45" cy="73.02" r="3" fill="#fafff8"/></g><g class="loop-led" data-led="20" style="--led-color:#85bade"><circle class="led-glow" cx="157.00" cy="45.74" r="17" fill="#85bade" opacity=".5" filter="url(#led-glow)"/><rect class="led-chip" x="153.00" y="40.74" width="8" height="10" rx="2" fill="#85bade"/><circle cx="157.00" cy="45.74" r="3" fill="#fafff8"/></g><g class="loop-led" data-led="21" style="--led-color:#85bade"><circle class="led-glow" cx="199.40" cy="26.87" r="17" fill="#85bade" opacity=".5" filter="url(#led-glow)"/><rect class="led-chip" x="195.40" y="21.87" width="8" height="10" rx="2" fill="#85bade"/><circle cx="199.40" cy="26.87" r="3" fill="#fafff8"/></g><g class="loop-led" data-led="22" style="--led-color:#85bade"><circle class="led-glow" cx="244.79" cy="17.22" r="17" fill="#85bade" opacity=".5" filter="url(#led-glow)"/><rect class="led-chip" x="240.79" y="12.22" width="8" height="10" rx="2" fill="#85bade"/><circle cx="244.79" cy="17.22" r="3" fill="#fafff8"/></g><g class="loop-led" data-led="23" style="--led-color:#85bade"><circle class="led-glow" cx="291.21" cy="17.22" r="17" fill="#85bade" opacity=".5" filter="url(#led-glow)"/><rect class="led-chip" x="287.21" y="12.22" width="8" height="10" rx="2" fill="#85bade"/><circle cx="291.21" cy="17.22" r="3" fill="#fafff8"/></g><g class="loop-led" data-led="24" style="--led-color:#eddb91"><circle class="led-glow" cx="336.60" cy="26.87" r="17" fill="#eddb91" opacity=".5" filter="url(#led-glow)"/><rect class="led-chip" x="332.60" y="21.87" width="8" height="10" rx="2" fill="#eddb91"/><circle cx="336.60" cy="26.87" r="3" fill="#fafff8"/></g><g class="loop-led" data-led="25" style="--led-color:#eddb91"><circle class="led-glow" cx="379.00" cy="45.74" r="17" fill="#eddb91" opacity=".5" filter="url(#led-glow)"/><rect class="led-chip" x="375.00" y="40.74" width="8" height="10" rx="2" fill="#eddb91"/><circle cx="379.00" cy="45.74" r="3" fill="#fafff8"/></g><g class="loop-led" data-led="26" style="--led-color:#eddb91"><circle class="led-glow" cx="416.55" cy="73.02" r="17" fill="#eddb91" opacity=".5" filter="url(#led-glow)"/><rect class="led-chip" x="412.55" y="68.02" width="8" height="10" rx="2" fill="#eddb91"/><circle cx="416.55" cy="73.02" r="3" fill="#fafff8"/></g><g class="loop-led" data-led="27" style="--led-color:#eddb91"><circle class="led-glow" cx="447.60" cy="107.51" r="17" fill="#eddb91" opacity=".5" filter="url(#led-glow)"/><rect class="led-chip" x="443.60" y="102.51" width="8" height="10" rx="2" fill="#eddb91"/><circle cx="447.60" cy="107.51" r="3" fill="#fafff8"/></g><g class="loop-led" data-led="28" style="--led-color:#eddb91"><circle class="led-glow" cx="470.81" cy="147.70" r="17" fill="#eddb91" opacity=".5" filter="url(#led-glow)"/><rect class="led-chip" x="466.81" y="142.70" width="8" height="10" rx="2" fill="#eddb91"/><circle cx="470.81" cy="147.70" r="3" fill="#fafff8"/></g><g class="loop-led" data-led="29" style="--led-color:#eddb91"><circle class="led-glow" cx="485.15" cy="191.84" r="17" fill="#eddb91" opacity=".5" filter="url(#led-glow)"/><rect class="led-chip" x="481.15" y="186.84" width="8" height="10" rx="2" fill="#eddb91"/><circle cx="485.15" cy="191.84" r="3" fill="#fafff8"/></g>
  <path d="M111 397L92 410" fill="none" stroke="#253529" stroke-width="12"/>
 </g>
</g>
</svg>